<mxfile host="65bd71144e">
    <diagram id="6HzQTttLvLq6ock-tSIC" name="Page-1">
        <mxGraphModel dx="1431" dy="574" grid="1" gridSize="10" guides="1" tooltips="1" connect="1" arrows="1" fold="1" page="1" pageScale="1" pageWidth="827" pageHeight="1169" math="0" shadow="0">
            <root>
                <mxCell id="0"/>
                <mxCell id="1" parent="0"/>
                <mxCell id="3" value="Start" style="rounded=1;whiteSpace=wrap;html=1;" parent="1" vertex="1">
                    <mxGeometry x="-116" y="9" width="120" height="60" as="geometry"/>
                </mxCell>
                <mxCell id="5" value="&amp;nbsp;Se recibe correo y let." style="shape=parallelogram;perimeter=parallelogramPerimeter;whiteSpace=wrap;html=1;fixedSize=1;" parent="1" vertex="1">
                    <mxGeometry x="-140" y="89" width="166" height="60" as="geometry"/>
                </mxCell>
                <mxCell id="6" value="Calculamos el valor de o" style="rounded=0;whiteSpace=wrap;html=1;" parent="1" vertex="1">
                    <mxGeometry x="-116" y="179" width="120" height="60" as="geometry"/>
                </mxCell>
                <mxCell id="7" value="" style="endArrow=classic;html=1;exitX=0.5;exitY=1;exitDx=0;exitDy=0;" parent="1" source="3" target="5" edge="1">
                    <mxGeometry width="50" height="50" relative="1" as="geometry">
                        <mxPoint x="-30" y="309" as="sourcePoint"/>
                        <mxPoint x="20" y="259" as="targetPoint"/>
                    </mxGeometry>
                </mxCell>
                <mxCell id="8" value="" style="endArrow=classic;html=1;exitX=0.5;exitY=1;exitDx=0;exitDy=0;" parent="1" source="5" target="6" edge="1">
                    <mxGeometry width="50" height="50" relative="1" as="geometry">
                        <mxPoint x="-30" y="309" as="sourcePoint"/>
                        <mxPoint x="20" y="259" as="targetPoint"/>
                    </mxGeometry>
                </mxCell>
                <mxCell id="9" value="int i=0" style="rounded=0;whiteSpace=wrap;html=1;" parent="1" vertex="1">
                    <mxGeometry x="-117" y="259" width="120" height="60" as="geometry"/>
                </mxCell>
                <mxCell id="10" value="" style="endArrow=classic;html=1;exitX=0.5;exitY=1;exitDx=0;exitDy=0;entryX=0.5;entryY=0;entryDx=0;entryDy=0;" parent="1" source="6" target="9" edge="1">
                    <mxGeometry width="50" height="50" relative="1" as="geometry">
                        <mxPoint x="-30" y="299" as="sourcePoint"/>
                        <mxPoint x="20" y="249" as="targetPoint"/>
                    </mxGeometry>
                </mxCell>
                <mxCell id="18" value="True" style="edgeStyle=none;html=1;entryX=0.5;entryY=0;entryDx=0;entryDy=0;" parent="1" source="11" target="22" edge="1">
                    <mxGeometry relative="1" as="geometry">
                        <mxPoint x="-57" y="479" as="targetPoint"/>
                    </mxGeometry>
                </mxCell>
                <mxCell id="11" value="i&amp;lt;=100" style="rhombus;whiteSpace=wrap;html=1;" parent="1" vertex="1">
                    <mxGeometry x="-97" y="349" width="80" height="80" as="geometry"/>
                </mxCell>
                <mxCell id="12" value="" style="endArrow=classic;html=1;exitX=0.5;exitY=1;exitDx=0;exitDy=0;entryX=0.5;entryY=0;entryDx=0;entryDy=0;" parent="1" source="9" target="11" edge="1">
                    <mxGeometry width="50" height="50" relative="1" as="geometry">
                        <mxPoint x="-30" y="299" as="sourcePoint"/>
                        <mxPoint x="20" y="249" as="targetPoint"/>
                    </mxGeometry>
                </mxCell>
                <mxCell id="22" value="i==o" style="rhombus;whiteSpace=wrap;html=1;" parent="1" vertex="1">
                    <mxGeometry x="-97" y="479" width="80" height="80" as="geometry"/>
                </mxCell>
                <mxCell id="23" value="False" style="endArrow=none;html=1;exitX=0.5;exitY=1;exitDx=0;exitDy=0;entryX=0.5;entryY=0;entryDx=0;entryDy=0;" parent="1" source="22" target="26" edge="1">
                    <mxGeometry width="50" height="50" relative="1" as="geometry">
                        <mxPoint x="-90" y="559" as="sourcePoint"/>
                        <mxPoint x="-190" y="519" as="targetPoint"/>
                    </mxGeometry>
                </mxCell>
                <mxCell id="25" value="" style="endArrow=classic;html=1;entryX=0;entryY=0.5;entryDx=0;entryDy=0;" parent="1" target="11" edge="1">
                    <mxGeometry width="50" height="50" relative="1" as="geometry">
                        <mxPoint x="-190" y="389" as="sourcePoint"/>
                        <mxPoint x="-40" y="509" as="targetPoint"/>
                    </mxGeometry>
                </mxCell>
                <mxCell id="26" value="i++" style="rounded=0;whiteSpace=wrap;html=1;" parent="1" vertex="1">
                    <mxGeometry x="-116" y="599" width="120" height="60" as="geometry"/>
                </mxCell>
                <mxCell id="27" value="" style="endArrow=none;html=1;exitX=0;exitY=0.5;exitDx=0;exitDy=0;" parent="1" source="26" edge="1">
                    <mxGeometry width="50" height="50" relative="1" as="geometry">
                        <mxPoint x="-90" y="559" as="sourcePoint"/>
                        <mxPoint x="-190" y="629" as="targetPoint"/>
                    </mxGeometry>
                </mxCell>
                <mxCell id="28" value="" style="endArrow=none;html=1;" parent="1" edge="1">
                    <mxGeometry width="50" height="50" relative="1" as="geometry">
                        <mxPoint x="-190" y="629" as="sourcePoint"/>
                        <mxPoint x="-190" y="389" as="targetPoint"/>
                    </mxGeometry>
                </mxCell>
                <mxCell id="29" value="True" style="endArrow=none;html=1;exitX=1;exitY=0.5;exitDx=0;exitDy=0;" parent="1" source="22" target="30" edge="1">
                    <mxGeometry width="50" height="50" relative="1" as="geometry">
                        <mxPoint x="10" y="539" as="sourcePoint"/>
                        <mxPoint x="170" y="519" as="targetPoint"/>
                    </mxGeometry>
                </mxCell>
                <mxCell id="32" value="" style="edgeStyle=none;html=1;" parent="1" source="30" target="31" edge="1">
                    <mxGeometry relative="1" as="geometry"/>
                </mxCell>
                <mxCell id="30" value="Calculamos num_char" style="rounded=0;whiteSpace=wrap;html=1;" parent="1" vertex="1">
                    <mxGeometry x="150" y="489" width="120" height="60" as="geometry"/>
                </mxCell>
                <mxCell id="34" value="" style="edgeStyle=none;html=1;" parent="1" source="31" edge="1">
                    <mxGeometry relative="1" as="geometry">
                        <mxPoint x="210" y="659" as="targetPoint"/>
                    </mxGeometry>
                </mxCell>
                <mxCell id="31" value="int x=0" style="whiteSpace=wrap;html=1;rounded=0;" parent="1" vertex="1">
                    <mxGeometry x="150" y="569" width="120" height="60" as="geometry"/>
                </mxCell>
                <mxCell id="36" value="" style="edgeStyle=none;html=1;exitX=0.5;exitY=0;exitDx=0;exitDy=0;" parent="1" source="35" target="31" edge="1">
                    <mxGeometry relative="1" as="geometry"/>
                </mxCell>
                <mxCell id="42" value="True" style="edgeStyle=none;html=1;" parent="1" source="35" edge="1">
                    <mxGeometry relative="1" as="geometry">
                        <mxPoint x="210" y="800" as="targetPoint"/>
                    </mxGeometry>
                </mxCell>
                <mxCell id="93" value="False" style="edgeStyle=none;html=1;entryX=1;entryY=0.5;entryDx=0;entryDy=0;" edge="1" parent="1" source="35" target="108">
                    <mxGeometry relative="1" as="geometry">
                        <mxPoint x="120" y="719" as="targetPoint"/>
                    </mxGeometry>
                </mxCell>
                <mxCell id="35" value="&lt;span style=&quot;color: rgb(240 , 240 , 240) ; font-family: &amp;#34;helvetica&amp;#34; ; font-size: 12px ; font-style: normal ; font-weight: 400 ; letter-spacing: normal ; text-align: center ; text-indent: 0px ; text-transform: none ; word-spacing: 0px ; background-color: rgb(42 , 42 , 42) ; display: inline ; float: none&quot;&gt;x&amp;lt;=correo.length&lt;/span&gt;" style="rhombus;whiteSpace=wrap;html=1;" parent="1" vertex="1">
                    <mxGeometry x="155" y="669" width="110" height="100" as="geometry"/>
                </mxCell>
                <mxCell id="44" value="True" style="edgeStyle=none;html=1;" parent="1" source="41" target="43" edge="1">
                    <mxGeometry relative="1" as="geometry"/>
                </mxCell>
                <mxCell id="50" value="False" style="edgeStyle=none;html=1;entryX=0.5;entryY=0;entryDx=0;entryDy=0;" parent="1" source="41" target="106" edge="1">
                    <mxGeometry relative="1" as="geometry">
                        <mxPoint x="210" y="1130" as="targetPoint"/>
                    </mxGeometry>
                </mxCell>
                <mxCell id="41" value="x&amp;lt;=num_char" style="rhombus;whiteSpace=wrap;html=1;" parent="1" vertex="1">
                    <mxGeometry x="170" y="1030" width="80" height="80" as="geometry"/>
                </mxCell>
                <mxCell id="46" value="False" style="edgeStyle=none;html=1;entryX=0;entryY=0.5;entryDx=0;entryDy=0;" parent="1" source="43" target="103" edge="1">
                    <mxGeometry relative="1" as="geometry">
                        <mxPoint x="440" y="1070" as="targetPoint"/>
                    </mxGeometry>
                </mxCell>
                <mxCell id="48" value="True" style="edgeStyle=none;html=1;entryX=0.5;entryY=0;entryDx=0;entryDy=0;" parent="1" source="43" target="107" edge="1">
                    <mxGeometry relative="1" as="geometry">
                        <mxPoint x="350" y="1130" as="targetPoint"/>
                    </mxGeometry>
                </mxCell>
                <mxCell id="43" value="x==num_char" style="rhombus;whiteSpace=wrap;html=1;" parent="1" vertex="1">
                    <mxGeometry x="310" y="1030" width="80" height="80" as="geometry"/>
                </mxCell>
                <mxCell id="54" style="edgeStyle=none;html=1;entryX=0.5;entryY=0;entryDx=0;entryDy=0;exitX=0.472;exitY=1.053;exitDx=0;exitDy=0;exitPerimeter=0;" parent="1" source="103" target="51" edge="1">
                    <mxGeometry relative="1" as="geometry">
                        <mxPoint x="490.0000000000002" y="1220.0000000000002" as="targetPoint"/>
                        <mxPoint x="487.7777777777778" y="1100" as="sourcePoint"/>
                    </mxGeometry>
                </mxCell>
                <mxCell id="53" style="edgeStyle=none;html=1;entryX=0.5;entryY=0;entryDx=0;entryDy=0;exitX=0.5;exitY=1;exitDx=0;exitDy=0;" parent="1" source="107" target="51" edge="1">
                    <mxGeometry relative="1" as="geometry">
                        <mxPoint x="356.66666666666674" y="1190" as="sourcePoint"/>
                    </mxGeometry>
                </mxCell>
                <mxCell id="52" value="" style="edgeStyle=none;html=1;exitX=0.5;exitY=1;exitDx=0;exitDy=0;" parent="1" source="106" target="51" edge="1">
                    <mxGeometry relative="1" as="geometry">
                        <mxPoint x="235.71428571428578" y="1190" as="sourcePoint"/>
                    </mxGeometry>
                </mxCell>
                <mxCell id="51" value="x++" style="whiteSpace=wrap;html=1;" parent="1" vertex="1">
                    <mxGeometry x="330" y="1340" width="120" height="60" as="geometry"/>
                </mxCell>
                <mxCell id="55" value="" style="endArrow=none;html=1;entryX=1;entryY=0.5;entryDx=0;entryDy=0;" parent="1" target="51" edge="1">
                    <mxGeometry width="50" height="50" relative="1" as="geometry">
                        <mxPoint x="580" y="1370" as="sourcePoint"/>
                        <mxPoint x="460" y="1381" as="targetPoint"/>
                    </mxGeometry>
                </mxCell>
                <mxCell id="56" value="" style="endArrow=none;html=1;" parent="1" edge="1">
                    <mxGeometry width="50" height="50" relative="1" as="geometry">
                        <mxPoint x="580" y="1054.5" as="sourcePoint"/>
                        <mxPoint x="580" y="720" as="targetPoint"/>
                    </mxGeometry>
                </mxCell>
                <mxCell id="58" value="" style="endArrow=none;html=1;" parent="1" edge="1">
                    <mxGeometry width="50" height="50" relative="1" as="geometry">
                        <mxPoint x="580" y="1370" as="sourcePoint"/>
                        <mxPoint x="580" y="1050" as="targetPoint"/>
                    </mxGeometry>
                </mxCell>
                <mxCell id="62" value="True" style="endArrow=none;html=1;exitX=1;exitY=0.5;exitDx=0;exitDy=0;" parent="1" source="11" target="70" edge="1">
                    <mxGeometry width="50" height="50" relative="1" as="geometry">
                        <mxPoint x="210" y="670" as="sourcePoint"/>
                        <mxPoint x="190" y="389" as="targetPoint"/>
                    </mxGeometry>
                </mxCell>
                <mxCell id="70" value="Retorna a main" style="rounded=1;whiteSpace=wrap;html=1;" parent="1" vertex="1">
                    <mxGeometry x="130" y="359" width="120" height="60" as="geometry"/>
                </mxCell>
                <mxCell id="71" value="" style="endArrow=classic;html=1;entryX=1;entryY=0.5;entryDx=0;entryDy=0;" parent="1" target="35" edge="1">
                    <mxGeometry width="50" height="50" relative="1" as="geometry">
                        <mxPoint x="580" y="720" as="sourcePoint"/>
                        <mxPoint x="160" y="620" as="targetPoint"/>
                    </mxGeometry>
                </mxCell>
                <mxCell id="80" value="True" style="edgeStyle=none;html=1;entryX=0;entryY=0.5;entryDx=0;entryDy=0;" edge="1" parent="1" source="77" target="104">
                    <mxGeometry relative="1" as="geometry">
                        <mxPoint x="310" y="840" as="targetPoint"/>
                    </mxGeometry>
                </mxCell>
                <mxCell id="83" value="False" style="edgeStyle=none;html=1;" edge="1" parent="1" source="77" target="82">
                    <mxGeometry relative="1" as="geometry"/>
                </mxCell>
                <mxCell id="77" value="i=100" style="rhombus;whiteSpace=wrap;html=1;" vertex="1" parent="1">
                    <mxGeometry x="170" y="800" width="80" height="80" as="geometry"/>
                </mxCell>
                <mxCell id="85" value="True" style="edgeStyle=none;html=1;entryX=0;entryY=0.5;entryDx=0;entryDy=0;" edge="1" parent="1" source="82" target="105">
                    <mxGeometry relative="1" as="geometry">
                        <mxPoint x="310" y="950" as="targetPoint"/>
                    </mxGeometry>
                </mxCell>
                <mxCell id="87" value="False" style="edgeStyle=none;html=1;entryX=0.5;entryY=0;entryDx=0;entryDy=0;" edge="1" parent="1" source="82" target="41">
                    <mxGeometry relative="1" as="geometry"/>
                </mxCell>
                <mxCell id="82" value="i==4" style="rhombus;whiteSpace=wrap;html=1;" vertex="1" parent="1">
                    <mxGeometry x="170" y="910" width="80" height="80" as="geometry"/>
                </mxCell>
                <mxCell id="95" value="" style="edgeStyle=none;html=1;exitX=0.554;exitY=1.029;exitDx=0;exitDy=0;exitPerimeter=0;entryX=0.5;entryY=0;entryDx=0;entryDy=0;" edge="1" parent="1" source="108" target="94">
                    <mxGeometry relative="1" as="geometry">
                        <mxPoint x="60" y="749" as="sourcePoint"/>
                    </mxGeometry>
                </mxCell>
                <mxCell id="97" value="True" style="edgeStyle=none;html=1;" edge="1" parent="1" source="94" target="96">
                    <mxGeometry relative="1" as="geometry"/>
                </mxCell>
                <mxCell id="99" value="False" style="edgeStyle=none;html=1;" edge="1" parent="1" source="94" target="98">
                    <mxGeometry relative="1" as="geometry"/>
                </mxCell>
                <mxCell id="94" value="¿Es la letra&lt;br&gt;una vocal?" style="rhombus;whiteSpace=wrap;html=1;" vertex="1" parent="1">
                    <mxGeometry x="15" y="760" width="90" height="90" as="geometry"/>
                </mxCell>
                <mxCell id="102" style="edgeStyle=none;html=1;entryX=0.841;entryY=0.99;entryDx=0;entryDy=0;entryPerimeter=0;" edge="1" parent="1" source="96" target="100">
                    <mxGeometry relative="1" as="geometry"/>
                </mxCell>
                <mxCell id="96" value="Ponla mayúscula" style="whiteSpace=wrap;html=1;" vertex="1" parent="1">
                    <mxGeometry y="880" width="120" height="60" as="geometry"/>
                </mxCell>
                <mxCell id="101" value="" style="edgeStyle=none;html=1;" edge="1" parent="1" source="98" target="100">
                    <mxGeometry relative="1" as="geometry"/>
                </mxCell>
                <mxCell id="98" value="Ponla minúscula" style="whiteSpace=wrap;html=1;" vertex="1" parent="1">
                    <mxGeometry x="-137" y="775" width="120" height="60" as="geometry"/>
                </mxCell>
                <mxCell id="109" style="edgeStyle=none;html=1;entryX=0.5;entryY=1;entryDx=0;entryDy=0;" edge="1" parent="1" source="100" target="26">
                    <mxGeometry relative="1" as="geometry"/>
                </mxCell>
                <mxCell id="100" value="Se imprimen los&lt;br&gt;caracteres del correo&lt;br&gt;hasta el numero&amp;nbsp;&lt;br&gt;correspondiente" style="shape=parallelogram;perimeter=parallelogramPerimeter;whiteSpace=wrap;html=1;fixedSize=1;" vertex="1" parent="1">
                    <mxGeometry x="-320" y="760" width="150" height="75" as="geometry"/>
                </mxCell>
                <mxCell id="103" value="&#10;&#10;&lt;span style=&quot;color: rgb(240, 240, 240); font-family: helvetica; font-size: 12px; font-style: normal; font-weight: 400; letter-spacing: normal; text-align: center; text-indent: 0px; text-transform: none; word-spacing: 0px; background-color: rgb(42, 42, 42); display: inline; float: none;&quot;&gt;Imprimimos &quot;=&quot;&lt;/span&gt;&#10;&#10;" style="shape=parallelogram;perimeter=parallelogramPerimeter;whiteSpace=wrap;html=1;fixedSize=1;" vertex="1" parent="1">
                    <mxGeometry x="430" y="1040" width="120" height="60" as="geometry"/>
                </mxCell>
                <mxCell id="104" value="&#10;&#10;&lt;span style=&quot;color: rgb(240, 240, 240); font-family: helvetica; font-size: 12px; font-style: normal; font-weight: 400; letter-spacing: normal; text-align: center; text-indent: 0px; text-transform: none; word-spacing: 0px; background-color: rgb(42, 42, 42); display: inline; float: none;&quot;&gt;Imprimimos solo &quot;=&quot;&lt;/span&gt;&#10;&#10;" style="shape=parallelogram;perimeter=parallelogramPerimeter;whiteSpace=wrap;html=1;fixedSize=1;" vertex="1" parent="1">
                    <mxGeometry x="310" y="810" width="120" height="60" as="geometry"/>
                </mxCell>
                <mxCell id="105" value="&#10;&#10;&lt;span style=&quot;color: rgb(240, 240, 240); font-family: helvetica; font-size: 12px; font-style: normal; font-weight: 400; letter-spacing: normal; text-align: center; text-indent: 0px; text-transform: none; word-spacing: 0px; background-color: rgb(42, 42, 42); display: inline; float: none;&quot;&gt;Imprimimos un solo&lt;/span&gt;&lt;br style=&quot;color: rgb(240, 240, 240); font-family: helvetica; font-size: 12px; font-style: normal; font-weight: 400; letter-spacing: normal; text-align: center; text-indent: 0px; text-transform: none; word-spacing: 0px; background-color: rgb(42, 42, 42);&quot;&gt;&lt;span style=&quot;color: rgb(240, 240, 240); font-family: helvetica; font-size: 12px; font-style: normal; font-weight: 400; letter-spacing: normal; text-align: center; text-indent: 0px; text-transform: none; word-spacing: 0px; background-color: rgb(42, 42, 42); display: inline; float: none;&quot;&gt;&quot;-&quot;&lt;/span&gt;&#10;&#10;" style="shape=parallelogram;perimeter=parallelogramPerimeter;whiteSpace=wrap;html=1;fixedSize=1;" vertex="1" parent="1">
                    <mxGeometry x="310" y="915" width="140" height="70" as="geometry"/>
                </mxCell>
                <mxCell id="106" value="&#10;&#10;&lt;span style=&quot;color: rgb(240, 240, 240); font-family: helvetica; font-size: 12px; font-style: normal; font-weight: 400; letter-spacing: normal; text-align: center; text-indent: 0px; text-transform: none; word-spacing: 0px; background-color: rgb(42, 42, 42); display: inline; float: none;&quot;&gt;Imprimimos&amp;nbsp; &quot; &quot;&lt;/span&gt;&#10;&#10;" style="shape=parallelogram;perimeter=parallelogramPerimeter;whiteSpace=wrap;html=1;fixedSize=1;" vertex="1" parent="1">
                    <mxGeometry x="150" y="1130" width="120" height="60" as="geometry"/>
                </mxCell>
                <mxCell id="107" value="&#10;&#10;&lt;span style=&quot;color: rgb(240, 240, 240); font-family: helvetica; font-size: 12px; font-style: normal; font-weight: 400; letter-spacing: normal; text-align: center; text-indent: 0px; text-transform: none; word-spacing: 0px; background-color: rgb(42, 42, 42); display: inline; float: none;&quot;&gt;Imprimimos &quot;-&quot;&lt;/span&gt;&#10;&#10;" style="shape=parallelogram;perimeter=parallelogramPerimeter;whiteSpace=wrap;html=1;fixedSize=1;" vertex="1" parent="1">
                    <mxGeometry x="290" y="1130" width="120" height="60" as="geometry"/>
                </mxCell>
                <mxCell id="108" value="&lt;span style=&quot;color: rgb(240 , 240 , 240) ; font-size: 12px ; font-style: normal ; font-weight: 400 ; letter-spacing: normal ; text-align: center ; text-indent: 0px ; text-transform: none ; word-spacing: 0px ; font-family: &amp;#34;helvetica&amp;#34; ; background-color: rgb(42 , 42 , 42) ; display: inline ; float: none&quot;&gt;Imprimimos&amp;nbsp; el &quot;]&quot; el&lt;/span&gt;&lt;br style=&quot;color: rgb(240 , 240 , 240) ; font-size: 12px ; font-style: normal ; font-weight: 400 ; letter-spacing: normal ; text-align: center ; text-indent: 0px ; text-transform: none ; word-spacing: 0px ; font-family: &amp;#34;helvetica&amp;#34; ; background-color: rgb(42 , 42 , 42)&quot;&gt;&lt;span style=&quot;color: rgb(240 , 240 , 240) ; font-size: 12px ; font-style: normal ; font-weight: 400 ; letter-spacing: normal ; text-align: center ; text-indent: 0px ; text-transform: none ; word-spacing: 0px ; font-family: &amp;#34;helvetica&amp;#34; ; background-color: rgb(42 , 42 , 42) ; display: inline ; float: none&quot;&gt;porcentaje y el&lt;/span&gt;&lt;br style=&quot;color: rgb(240 , 240 , 240) ; font-size: 12px ; font-style: normal ; font-weight: 400 ; letter-spacing: normal ; text-align: center ; text-indent: 0px ; text-transform: none ; word-spacing: 0px ; font-family: &amp;#34;helvetica&amp;#34; ; background-color: rgb(42 , 42 , 42)&quot;&gt;&lt;span style=&quot;color: rgb(240 , 240 , 240) ; font-size: 12px ; font-style: normal ; font-weight: 400 ; letter-spacing: normal ; text-align: center ; text-indent: 0px ; text-transform: none ; word-spacing: 0px ; font-family: &amp;#34;helvetica&amp;#34; ; background-color: rgb(42 , 42 , 42) ; display: inline ; float: none&quot;&gt;numero de letras&lt;/span&gt;" style="shape=parallelogram;perimeter=parallelogramPerimeter;whiteSpace=wrap;html=1;fixedSize=1;" vertex="1" parent="1">
                    <mxGeometry x="-14" y="680" width="134" height="69" as="geometry"/>
                </mxCell>
            </root>
        </mxGraphModel>
    </diagram>
</mxfile>